# xmcd
#
# Track frame offsets:
#	150
#	12795
#	25137
#	37713
#	50156
#	64009
#	75557
#	84791
#	96087
#	107599
#	119948
#	130365
#	142018
#	153819
#	166248
#	177813
#	187878
#	200636
#	212954
#	225382
#
# Disc length: 3177 seconds
#
# Revision: 1
# Processed by: cddbd v1.5.2PL0 Copyright (c) Steve Scherf et al.
# Submitted via: audiograbber 1.83.01
#
DISCID=020c6714
DTITLE=Jimmy Reed - Ain't That Lovin' You Baby
DYEAR=2007
DGENRE=Blues
TTITLE0=High And Lonesome
TTITLE1=Jimmie's Boogie
TTITLE2=I Found My Baby
TTITLE3=Roll And Rhumba
TTITLE4=You Don't Have To Go
TTITLE5=Boogie In The Dark
TTITLE6=Shot My Baby
TTITLE7=Rockin' With Reed
TTITLE8=I'm Gonna Ruin You
TTITLE9=Pretty Thing
TTITLE10=I Ain't Got You
TTITLE11=She Don't Want Me No More
TTITLE12=Come On Baby
TTITLE13=I Don't Go For That
TTITLE14=Baby, Don't Say That No More
TTITLE15=Ain't That Loving You Baby
TTITLE16=Can't Stand To See You Go
TTITLE17=I Love You Baby
TTITLE18=My First Plea
TTITLE19=You Got Me Dizzy
EXTD=The Essential Blue Archiv
EXTT0=
EXTT1=
EXTT2=
EXTT3=
EXTT4=
EXTT5=
EXTT6=
EXTT7=
EXTT8=
EXTT9=
EXTT10=
EXTT11=
EXTT12=
EXTT13=
EXTT14=
EXTT15=
EXTT16=
EXTT17=
EXTT18=
EXTT19=
PLAYORDER=
